<?xml version="1.0" encoding="UTF-8"?>
<svg xmlns="http://www.w3.org/2000/svg" xmlns:xlink="http://www.w3.org/1999/xlink" viewBox="0 0 50 50" version="1.1" width="50px" height="50px">
<g id="surface1">
<path style=" " d="M 17.1875 -0.03125 C 16.25 0.0898438 15.410156 0.726563 15.0625 1.65625 C 15.050781 1.6875 15.039063 1.714844 15.03125 1.75 C 14.824219 2.554688 14.1875 5 8 5 C 3.515625 5 0 8.515625 0 13 C 0 19.265625 4.785156 21.476563 8 21.90625 L 8 46.5 C 8 48.464844 9.539063 50 11.5 50 C 13.460938 50 15 48.464844 15 46.5 L 15 31 C 15.128906 30.15625 19.046875 28 23 28 C 26.949219 28 30.867188 30.167969 31 31 L 31 46.5 C 31 48.464844 32.535156 50 34.5 50 C 36.464844 50 38 48.464844 38 46.5 L 38 32 C 38 31.449219 38.449219 31 39 31 C 39.550781 31 40 31.449219 40 32 L 40 46.5 C 40 48.464844 41.535156 50 43.5 50 C 45.464844 50 47 48.464844 47 46.5 L 47 22.375 C 45.273438 23.402344 43.214844 24 41 24 C 34.933594 24 30 19.515625 30 14 L 30 12.84375 C 27.722656 12.3125 24.9375 12 22 12 C 18.152344 12 14.089844 13.683594 11.125 14.90625 C 9.867188 15.425781 8.449219 16 8 16 C 6.347656 16 5 14.652344 5 13 C 5 11.347656 6.347656 10 8 10 C 16.191406 10 18.976563 6.300781 19.875 3.15625 C 20.203125 1.847656 19.515625 0.539063 18.25 0.0625 C 18.214844 0.0507813 18.191406 0.0429688 18.15625 0.03125 C 17.835938 -0.0507813 17.5 -0.0703125 17.1875 -0.03125 Z M 32.90625 3 C 32.808594 3.007813 32.71875 3.023438 32.625 3.0625 C 32.25 3.21875 32 3.597656 32 4 L 32 14 C 32 18.410156 36.035156 22 41 22 C 45.964844 22 50 18.410156 50 14 L 50 4 C 50 3.597656 49.75 3.21875 49.375 3.0625 C 49 2.90625 48.566406 2.996094 48.28125 3.28125 L 44.78125 6.8125 C 43.535156 6.285156 42.242188 6 41 6 C 39.738281 6 38.382813 6.28125 37.21875 6.78125 L 33.71875 3.28125 C 33.503906 3.066406 33.199219 2.972656 32.90625 3 Z M 37.5 11 C 38.328125 11 39 11.671875 39 12.5 C 39 13.328125 38.328125 14 37.5 14 C 36.671875 14 36 13.328125 36 12.5 C 36 11.671875 36.671875 11 37.5 11 Z M 44.5 11 C 45.328125 11 46 11.671875 46 12.5 C 46 13.328125 45.328125 14 44.5 14 C 43.671875 14 43 13.328125 43 12.5 C 43 11.671875 43.671875 11 44.5 11 Z "/>
</g>
</svg>
